%
M48
M72
T01C0.0120
T02C0.0400
%
T01
X1433Y7151
X2283Y7001
X2533Y5651
X2533Y4901
X2533Y4151
X2383Y9451
X3083Y10801
X3083Y11701
X3633Y13351
X3983Y11701
X3983Y10801
X4083Y13351
X3683Y15201
X3083Y15201
X2583Y14351
X1983Y16251
X2183Y18101
X2033Y19751
X2033Y20751
X2033Y21751
X2033Y23351
X2833Y23351
X2833Y21751
X2833Y20751
X2833Y19751
X2683Y18101
X3633Y19751
X3633Y20751
X3633Y21751
X3633Y23351
X4433Y23351
X4433Y23851
X4433Y24351
X4433Y21751
X4433Y20751
X4433Y19751
X5233Y19751
X5233Y20751
X5233Y21751
X5233Y23351
X5233Y24351
X5833Y23351
X5833Y22551
X5833Y21751
X5833Y20751
X5833Y19751
X5033Y16501
X5383Y14551
X5133Y12751
X4983Y9701
X5233Y9451
X5233Y8151
X5333Y7251
X4933Y7051
X4983Y6101
X4483Y5351
X4483Y4701
X4483Y4151
X4133Y6201
X4033Y6851
X4333Y7651
T02
X3533Y6451
X3533Y24051
M30
